<?xml version="1.0" encoding="utf-8"?>
<!-- Generator: Adobe Illustrator 23.0.3, SVG Export Plug-In . SVG Version: 6.00 Build 0)  -->
<svg version="1.1" id="Layer_1" xmlns="http://www.w3.org/2000/svg" xmlns:xlink="http://www.w3.org/1999/xlink" x="0px" y="0px"
	 viewBox="0 0 1263 940" style="enable-background:new 0 0 1263 940;" xml:space="preserve">
<style type="text/css">
	.st0{fill:#3B0086;}
	.st1{fill:#3D0185;}
	.st2{fill:#3F0283;}
	.st3{fill:#410382;}
	.st4{fill:#430481;}
	.st5{fill:#45057F;}
	.st6{fill:#47067E;}
	.st7{fill:#49087D;}
	.st8{fill:#4B097B;}
	.st9{fill:#4C0A7A;}
	.st10{fill:#4E0B79;}
	.st11{fill:#500C77;}
	.st12{fill:#520D76;}
	.st13{fill:#540E75;}
	.st14{fill:#560F73;}
	.st15{fill:#581072;}
	.st16{fill:#5A1171;}
	.st17{fill:#5C126F;}
	.st18{fill:#5E136E;}
	.st19{fill:#60156D;}
	.st20{fill:#62166B;}
	.st21{fill:#64176A;}
	.st22{fill:#661869;}
	.st23{fill:#681967;}
	.st24{fill:#6A1A66;}
	.st25{fill:#6C1B65;}
	.st26{fill:#6D1C64;}
	.st27{fill:#6F1D62;}
	.st28{fill:#711E61;}
	.st29{fill:#731F60;}
	.st30{fill:#75205E;}
	.st31{fill:#77215D;}
	.st32{fill:#79235C;}
	.st33{fill:#7B245A;}
	.st34{fill:#7D2559;}
	.st35{fill:#7F2658;}
	.st36{fill:#812756;}
	.st37{fill:#832855;}
	.st38{fill:#852954;}
	.st39{fill:#872A52;}
	.st40{fill:#892B51;}
	.st41{fill:#8B2C50;}
	.st42{fill:#8D2D4E;}
	.st43{fill:#8E2E4D;}
	.st44{fill:#902F4C;}
	.st45{fill:#92314A;}
	.st46{fill:#943249;}
	.st47{fill:#963348;}
	.st48{fill:#983446;}
	.st49{fill:#9A3545;}
	.st50{fill:#9C3644;}
	.st51{fill:#9E3742;}
	.st52{fill:#A03841;}
	.st53{fill:#A23940;}
	.st54{fill:#A43A3E;}
	.st55{fill:#A63B3D;}
	.st56{fill:#A83C3C;}
	.st57{fill:#AA3E3A;}
	.st58{fill:#AC3F39;}
	.st59{fill:#AD4038;}
	.st60{fill:#AF4136;}
	.st61{fill:#B14235;}
	.st62{fill:#B34334;}
	.st63{fill:#B54432;}
	.st64{fill:#B74531;}
	.st65{fill:#B94630;}
	.st66{fill:#BB472E;}
	.st67{fill:#BD482D;}
	.st68{fill:#BF492C;}
	.st69{fill:#C14A2A;}
	.st70{fill:#C34C29;}
	.st71{fill:#C54D28;}
	.st72{fill:#C74E26;}
	.st73{fill:#C94F25;}
	.st74{fill:#CB5024;}
	.st75{fill:#CD5122;}
	.st76{fill:#CE5221;}
	.st77{fill:#D05320;}
	.st78{fill:#D2541F;}
	.st79{fill:#D4551D;}
	.st80{fill:#D6561C;}
	.st81{fill:#D8571B;}
	.st82{fill:#DA5819;}
	.st83{fill:#DC5A18;}
	.st84{fill:#DE5B17;}
	.st85{fill:#E05C15;}
	.st86{fill:#E25D14;}
	.st87{fill:#E45E13;}
	.st88{fill:#E65F11;}
	.st89{fill:#E86010;}
	.st90{fill:#EA610F;}
	.st91{fill:#EC620D;}
	.st92{fill:#EE630C;}
	.st93{fill:#EF640B;}
	.st94{fill:#F16509;}
	.st95{fill:#F36708;}
	.st96{fill:#F56807;}
	.st97{fill:#F76905;}
	.st98{fill:#F96A04;}
	.st99{fill:#FB6B03;}
	.st100{fill:#FD6C01;}
	.st101{fill:#FF6D00;}
</style>
<g>
	<circle class="st0" cx="1065.5" cy="37.5" r="23.5"/>
	<circle class="st1" cx="1038.12" cy="53.44" r="24.34"/>
	<circle class="st2" cx="1011.12" cy="69.39" r="25.18"/>
	<circle class="st3" cx="984.57" cy="85.31" r="26.02"/>
	<circle class="st4" cx="958.54" cy="101.18" r="26.86"/>
	<circle class="st5" cx="933.13" cy="116.96" r="27.7"/>
	<circle class="st6" cx="908.41" cy="132.62" r="28.53"/>
	<circle class="st7" cx="884.46" cy="148.14" r="29.37"/>
	<circle class="st8" cx="861.36" cy="163.47" r="30.21"/>
	<circle class="st9" cx="839.18" cy="178.6" r="31.05"/>
	<circle class="st10" cx="818.01" cy="193.49" r="31.89"/>
	<circle class="st11" cx="797.93" cy="208.11" r="32.73"/>
	<circle class="st12" cx="779.02" cy="222.43" r="33.57"/>
	<circle class="st13" cx="761.35" cy="236.41" r="34.41"/>
	<circle class="st14" cx="745" cy="250.04" r="35.25"/>
	<circle class="st15" cx="730.06" cy="263.27" r="36.09"/>
	<circle class="st16" cx="716.61" cy="276.09" r="36.93"/>
	<circle class="st17" cx="704.72" cy="288.44" r="37.76"/>
	<circle class="st18" cx="694.47" cy="300.32" r="38.6"/>
	<circle class="st19" cx="685.94" cy="311.68" r="39.44"/>
	<circle class="st20" cx="679.21" cy="322.5" r="40.28"/>
	<circle class="st21" cx="674.36" cy="332.74" r="41.12"/>
	<circle class="st22" cx="671.48" cy="342.37" r="41.96"/>
	<circle class="st23" cx="670.63" cy="351.37" r="42.8"/>
	<circle class="st24" cx="671.91" cy="359.7" r="43.64"/>
	<circle class="st25" cx="676.99" cy="369.64" r="44.48"/>
	<circle class="st26" cx="686.42" cy="378.44" r="45.32"/>
	<circle class="st27" cx="699.6" cy="385.42" r="46.16"/>
	<circle class="st28" cx="716.15" cy="390.75" r="47"/>
	<circle class="st29" cx="735.69" cy="394.58" r="47.83"/>
	<circle class="st30" cx="757.84" cy="397.07" r="48.67"/>
	<circle class="st31" cx="782.24" cy="398.36" r="49.51"/>
	<circle class="st32" cx="808.5" cy="398.62" r="50.35"/>
	<circle class="st33" cx="836.25" cy="398.01" r="51.19"/>
	<circle class="st34" cx="865.11" cy="396.67" r="52.03"/>
	<circle class="st35" cx="894.7" cy="394.76" r="52.87"/>
	<circle class="st36" cx="924.65" cy="392.44" r="53.71"/>
	<circle class="st37" cx="954.59" cy="389.87" r="54.55"/>
	<circle class="st38" cx="984.13" cy="387.19" r="55.39"/>
	<circle class="st39" cx="1012.89" cy="384.57" r="56.23"/>
	<circle class="st40" cx="1040.51" cy="382.16" r="57.06"/>
	<circle class="st41" cx="1066.61" cy="380.12" r="57.9"/>
	<circle class="st42" cx="1090.81" cy="378.6" r="58.74"/>
	<circle class="st43" cx="1112.73" cy="377.76" r="59.58"/>
	<circle class="st44" cx="1131.99" cy="377.75" r="60.42"/>
	<circle class="st45" cx="1148.23" cy="378.73" r="61.26"/>
	<circle class="st46" cx="1161.06" cy="380.86" r="62.1"/>
	<circle class="st47" cx="1170.11" cy="384.28" r="62.94"/>
	<circle class="st48" cx="1175.01" cy="389.16" r="63.78"/>
	<circle class="st49" cx="1175.77" cy="392.14" r="64.62"/>
	<circle class="st50" cx="1175.62" cy="394.42" r="65.46"/>
	<circle class="st51" cx="1174.9" cy="396.87" r="66.29"/>
	<circle class="st52" cx="1173.6" cy="399.5" r="67.13"/>
	<circle class="st53" cx="1171.7" cy="402.3" r="67.97"/>
	<circle class="st54" cx="1169.19" cy="405.29" r="68.81"/>
	<circle class="st55" cx="1166.06" cy="408.47" r="69.65"/>
	<circle class="st56" cx="1162.29" cy="411.83" r="70.49"/>
	<circle class="st57" cx="1157.88" cy="415.39" r="71.33"/>
	<circle class="st58" cx="1152.8" cy="419.14" r="72.17"/>
	<circle class="st59" cx="1147.04" cy="423.09" r="73.01"/>
	<circle class="st60" cx="1140.6" cy="427.25" r="73.85"/>
	<circle class="st61" cx="1133.46" cy="431.61" r="74.69"/>
	<circle class="st62" cx="1125.6" cy="436.19" r="75.52"/>
	<circle class="st63" cx="1117.02" cy="440.98" r="76.36"/>
	<circle class="st64" cx="1107.7" cy="445.98" r="77.2"/>
	<circle class="st65" cx="1097.62" cy="451.21" r="78.04"/>
	<circle class="st66" cx="1086.78" cy="456.66" r="78.88"/>
	<circle class="st67" cx="1075.16" cy="462.33" r="79.72"/>
	<circle class="st68" cx="1062.75" cy="468.24" r="80.56"/>
	<circle class="st69" cx="1049.54" cy="474.39" r="81.4"/>
	<circle class="st70" cx="1035.5" cy="480.77" r="82.24"/>
	<circle class="st71" cx="1020.64" cy="487.39" r="83.08"/>
	<circle class="st72" cx="1004.94" cy="494.26" r="83.92"/>
	<circle class="st73" cx="988.37" cy="501.37" r="84.75"/>
	<circle class="st74" cx="970.94" cy="508.74" r="85.59"/>
	<circle class="st75" cx="952.63" cy="516.36" r="86.43"/>
	<circle class="st76" cx="933.42" cy="524.24" r="87.27"/>
	<circle class="st77" cx="913.31" cy="532.39" r="88.11"/>
	<circle class="st78" cx="892.27" cy="540.8" r="88.95"/>
	<circle class="st79" cx="870.3" cy="549.48" r="89.79"/>
	<circle class="st80" cx="847.38" cy="558.43" r="90.63"/>
	<circle class="st81" cx="823.51" cy="567.65" r="91.47"/>
	<circle class="st82" cx="798.66" cy="577.16" r="92.31"/>
	<circle class="st83" cx="772.82" cy="586.95" r="93.15"/>
	<circle class="st84" cx="745.99" cy="597.03" r="93.99"/>
	<circle class="st85" cx="718.15" cy="607.39" r="94.82"/>
	<circle class="st86" cx="689.28" cy="618.05" r="95.66"/>
	<circle class="st87" cx="659.37" cy="629.01" r="96.5"/>
	<circle class="st88" cx="628.41" cy="640.27" r="97.34"/>
	<circle class="st89" cx="596.39" cy="651.83" r="98.18"/>
	<circle class="st90" cx="563.3" cy="663.69" r="99.02"/>
	<circle class="st91" cx="529.11" cy="675.87" r="99.86"/>
	<circle class="st92" cx="493.82" cy="688.36" r="100.7"/>
	<circle class="st93" cx="457.42" cy="701.17" r="101.54"/>
	<circle class="st94" cx="419.89" cy="714.3" r="102.38"/>
	<circle class="st95" cx="381.22" cy="727.76" r="103.22"/>
	<circle class="st96" cx="341.39" cy="741.54" r="104.05"/>
	<circle class="st97" cx="300.4" cy="755.66" r="104.89"/>
	<circle class="st98" cx="258.23" cy="770.11" r="105.73"/>
	<circle class="st99" cx="214.86" cy="784.9" r="106.57"/>
	<circle class="st100" cx="170.29" cy="800.02" r="107.41"/>
	<circle class="st101" cx="124.5" cy="815.5" r="108.25"/>
</g>
</svg>
